<svg width="44" height="44" viewBox="0 0 44 44" fill="none" xmlns="http://www.w3.org/2000/svg">
<path d="M22 0C24.9174 0 27.7153 1.15892 29.7782 3.22182C31.8411 5.28472 33 8.08262 33 11C33 13.9174 31.8411 16.7153 29.7782 18.7782C27.7153 20.8411 24.9174 22 22 22C19.0826 22 16.2847 20.8411 14.2218 18.7782C12.1589 16.7153 11 13.9174 11 11C11 8.08262 12.1589 5.28472 14.2218 3.22182C16.2847 1.15892 19.0826 0 22 0V0ZM22 27.5C34.155 27.5 44 32.4225 44 38.5V44H0V38.5C0 32.4225 9.845 27.5 22 27.5Z" fill="#FBFAFF"/>
</svg>
