<svg width="83" height="83" viewBox="0 0 83 83" fill="none" xmlns="http://www.w3.org/2000/svg">
<path d="M39.0684 12.3203H43.9316C44.3639 12.3203 44.5801 12.5365 44.5801 12.9688V70.0312C44.5801 70.4635 44.3639 70.6797 43.9316 70.6797H39.0684C38.6361 70.6797 38.4199 70.4635 38.4199 70.0312V12.9688C38.4199 12.5365 38.6361 12.3203 39.0684 12.3203Z" fill="#EAF3FC"/>
<path d="M14.2656 38.4199H68.7344C69.1667 38.4199 69.3828 38.6361 69.3828 39.0684V43.9316C69.3828 44.3639 69.1667 44.5801 68.7344 44.5801H14.2656C13.8333 44.5801 13.6172 44.3639 13.6172 43.9316V39.0684C13.6172 38.6361 13.8333 38.4199 14.2656 38.4199Z" fill="#EAF3FC"/>
</svg>
