<svg width="29" height="27" viewBox="0 0 29 27" fill="none" xmlns="http://www.w3.org/2000/svg">
<path fill-rule="evenodd" clip-rule="evenodd" d="M21.75 13.5C21.75 13.7238 21.6545 13.9384 21.4845 14.0966C21.3146 14.2549 21.0841 14.3437 20.8437 14.3437H10.3439L14.2353 17.9651C14.3196 18.0436 14.3864 18.1367 14.432 18.2392C14.4776 18.3417 14.5011 18.4516 14.5011 18.5625C14.5011 18.6734 14.4776 18.7833 14.432 18.8858C14.3864 18.9883 14.3196 19.0814 14.2353 19.1599C14.1511 19.2383 14.0511 19.3006 13.941 19.343C13.8309 19.3855 13.7129 19.4073 13.5937 19.4073C13.4746 19.4073 13.3566 19.3855 13.2465 19.343C13.1364 19.3006 13.0364 19.2383 12.9521 19.1599L7.5146 14.0974C7.4302 14.019 7.36324 13.9259 7.31756 13.8234C7.27187 13.7209 7.24835 13.611 7.24835 13.5C7.24835 13.389 7.27187 13.2791 7.31756 13.1766C7.36324 13.0741 7.4302 12.981 7.5146 12.9026L12.9521 7.84012C13.1223 7.68169 13.3531 7.59268 13.5937 7.59268C13.8344 7.59268 14.0652 7.68169 14.2353 7.84012C14.4055 7.99856 14.5011 8.21344 14.5011 8.4375C14.5011 8.66156 14.4055 8.87644 14.2353 9.03487L10.3439 12.6562H20.8437C21.0841 12.6562 21.3146 12.7451 21.4845 12.9034C21.6545 13.0616 21.75 13.2762 21.75 13.5Z" fill="black"/>
</svg>
