<svg width="49" height="49" viewBox="0 0 49 49" fill="none" xmlns="http://www.w3.org/2000/svg">
<path d="M38.22 30.135C38.9346 28.3995 39.3225 26.5416 39.3225 24.5C39.3225 23.03 39.0979 21.6212 38.71 20.3145C37.3829 20.6208 35.9946 20.7841 34.545 20.7841C31.5763 20.7873 28.6504 20.0767 26.0139 18.7123C23.3774 17.3478 21.1076 15.3695 19.3958 12.9441C17.5646 17.3749 14.1102 20.9389 9.73873 22.9075C9.65706 23.4179 9.65706 23.9691 9.65706 24.5C9.65706 26.4492 10.041 28.3793 10.7869 30.1801C11.5328 31.9809 12.6262 33.6172 14.0045 34.9955C16.788 37.7791 20.5634 39.3429 24.5 39.3429C26.6437 39.3429 28.7058 38.8733 30.5637 38.0362C31.7275 40.2616 32.2583 41.3641 32.2175 41.3641C28.8691 42.487 26.2762 43.0383 24.5 43.0383C19.5591 43.0383 14.8429 41.0987 11.3721 37.6075C9.26097 35.5029 7.69169 32.9178 6.79873 30.0737H4.08331V20.7841H6.30873C6.98297 17.5022 8.53311 14.464 10.7947 11.9919C13.0562 9.51979 15.9448 7.70604 19.1539 6.74309C22.3631 5.78014 25.773 5.70391 29.022 6.52249C32.271 7.34106 35.2377 9.02391 37.6075 11.3925C40.1804 13.9553 41.9354 17.2237 42.6504 20.7841H44.9166V30.0737H44.7941L37.5258 36.75L26.705 35.525V32.1154H36.5662L38.22 30.135ZM18.9262 24.0304C19.5387 24.0304 20.1308 24.2754 20.5596 24.7245C20.9904 25.159 21.2322 25.746 21.2322 26.3579C21.2322 26.9697 20.9904 27.5568 20.5596 27.9912C20.1308 28.42 19.5387 28.665 18.9262 28.665C17.64 28.665 16.5987 27.6441 16.5987 26.3579C16.5987 25.0716 17.64 24.0304 18.9262 24.0304ZM30.0533 24.0304C31.3396 24.0304 32.3604 25.0716 32.3604 26.3579C32.3604 27.6441 31.3396 28.665 30.0533 28.665C28.7671 28.665 27.7258 27.6441 27.7258 26.3579C27.7258 25.7406 27.971 25.1486 28.4075 24.7121C28.844 24.2756 29.436 24.0304 30.0533 24.0304Z" fill="#0361FE"/>
</svg>
