<svg width="69" height="48" viewBox="0 0 69 48" fill="none" xmlns="http://www.w3.org/2000/svg">
<path d="M26 13C26 17.962 30.038 22 35 22C39.962 22 44 17.962 44 13C44 8.038 39.962 4 35 4C30.038 4 26 8.038 26 13ZM51 42H53V40C53 32.282 46.718 26 39 26H31C23.28 26 17 32.282 17 40V42H51Z" fill="white"/>
<path d="M10 9.66675C10 12.9747 12.692 15.6667 16 15.6667C19.308 15.6667 22 12.9747 22 9.66675C22 6.35875 19.308 3.66675 16 3.66675C12.692 3.66675 10 6.35875 10 9.66675ZM26.6667 29.0001H28V27.6667C28 22.5214 23.812 18.3334 18.6667 18.3334H13.3333C8.18667 18.3334 4 22.5214 4 27.6667V29.0001H26.6667Z" fill="white"/>
<path d="M47 9.66675C47 12.9747 49.692 15.6667 53 15.6667C56.308 15.6667 59 12.9747 59 9.66675C59 6.35875 56.308 3.66675 53 3.66675C49.692 3.66675 47 6.35875 47 9.66675ZM63.6667 29.0001H65V27.6667C65 22.5214 60.812 18.3334 55.6667 18.3334H50.3333C45.1867 18.3334 41 22.5214 41 27.6667V29.0001H63.6667Z" fill="white"/>
</svg>
