<svg width="19" height="22" viewBox="0 0 19 22" fill="none" xmlns="http://www.w3.org/2000/svg">
<path d="M18.875 17.7917V18.8333H0.125V17.7917L2.20833 15.7083V9.45833C2.20833 6.22916 4.32292 3.38541 7.41667 2.46874V2.16666C7.41667 1.61413 7.63616 1.08422 8.02686 0.693522C8.41756 0.302822 8.94746 0.0833282 9.5 0.0833282C10.0525 0.0833282 10.5824 0.302822 10.9731 0.693522C11.3638 1.08422 11.5833 1.61413 11.5833 2.16666V2.46874C14.6771 3.38541 16.7917 6.22916 16.7917 9.45833V15.7083L18.875 17.7917ZM11.5833 19.875C11.5833 20.4275 11.3638 20.9574 10.9731 21.3481C10.5824 21.7388 10.0525 21.9583 9.5 21.9583C8.94746 21.9583 8.41756 21.7388 8.02686 21.3481C7.63616 20.9574 7.41667 20.4275 7.41667 19.875" fill="#0361FE"/>
</svg>
