<svg width="29" height="29" viewBox="0 0 29 29" fill="none" xmlns="http://www.w3.org/2000/svg">
<path d="M18.2096 13.5938L17.1221 14.7054C16.2521 15.5754 15.7083 16.3125 15.7083 18.125H13.2917V17.5209C13.2917 16.1796 13.8354 14.9713 14.7054 14.1013L16.2037 12.5788C16.6508 12.1438 16.9167 11.5396 16.9167 10.875C16.9167 10.2341 16.662 9.61939 16.2088 9.16618C15.7556 8.71297 15.1409 8.45835 14.5 8.45835C13.859 8.45835 13.2444 8.71297 12.7911 9.16618C12.3379 9.61939 12.0833 10.2341 12.0833 10.875H9.66666C9.66666 9.59314 10.1759 8.36376 11.0823 7.45734C11.9887 6.55091 13.2181 6.04169 14.5 6.04169C15.7819 6.04169 17.0112 6.55091 17.9177 7.45734C18.8241 8.36376 19.3333 9.59314 19.3333 10.875C19.3316 11.8939 18.9277 12.871 18.2096 13.5938ZM15.7083 22.9584H13.2917V20.5417H15.7083V22.9584ZM14.5 2.41669C12.9132 2.41669 11.3419 2.72923 9.8759 3.33648C8.40988 3.94372 7.07782 4.83377 5.95578 5.95581C3.68972 8.22188 2.41666 11.2953 2.41666 14.5C2.41666 17.7047 3.68972 20.7782 5.95578 23.0442C7.07782 24.1663 8.40988 25.0563 9.8759 25.6636C11.3419 26.2708 12.9132 26.5834 14.5 26.5834C17.7047 26.5834 20.7781 25.3103 23.0442 23.0442C25.3103 20.7782 26.5833 17.7047 26.5833 14.5C26.5833 7.81794 21.1458 2.41669 14.5 2.41669Z" fill="#BFC6D0"/>
</svg>
