<svg width="29" height="29" viewBox="0 0 29 29" fill="none" xmlns="http://www.w3.org/2000/svg">
<path d="M25.375 22.9584V24.1667H3.625V22.9584L6.04167 20.5417V13.2917C6.04167 9.54585 8.49458 6.2471 12.0833 5.18377V4.83335C12.0833 4.19241 12.3379 3.57773 12.7912 3.12451C13.2444 2.6713 13.8591 2.41669 14.5 2.41669C15.1409 2.41669 15.7556 2.6713 16.2088 3.12451C16.6621 3.57773 16.9167 4.19241 16.9167 4.83335V5.18377C20.5054 6.2471 22.9583 9.54585 22.9583 13.2917V20.5417L25.375 22.9584ZM16.9167 25.375C16.9167 26.016 16.6621 26.6306 16.2088 27.0839C15.7556 27.5371 15.1409 27.7917 14.5 27.7917C13.8591 27.7917 13.2444 27.5371 12.7912 27.0839C12.3379 26.6306 12.0833 26.016 12.0833 25.375" fill="#BFC6D0"/>
</svg>
