<svg width="29" height="29" viewBox="0 0 29 29" fill="none" xmlns="http://www.w3.org/2000/svg">
<path d="M7.99917 13.0379C9.73917 16.4575 12.5425 19.2608 15.9621 21.0008L18.6204 18.3425C18.9588 18.0042 19.43 17.9075 19.8529 18.0404C21.2063 18.4875 22.6562 18.7292 24.1667 18.7292C24.4871 18.7292 24.7945 18.8565 25.0211 19.0831C25.2477 19.3097 25.375 19.617 25.375 19.9375V24.1667C25.375 24.4871 25.2477 24.7945 25.0211 25.0211C24.7945 25.2477 24.4871 25.375 24.1667 25.375C18.7187 25.375 13.4938 23.2108 9.64151 19.3585C5.78921 15.5062 3.625 10.2813 3.625 4.83333C3.625 4.51286 3.75231 4.20552 3.97891 3.97891C4.20552 3.75231 4.51286 3.625 4.83333 3.625H9.0625C9.38297 3.625 9.69031 3.75231 9.91692 3.97891C10.1435 4.20552 10.2708 4.51286 10.2708 4.83333C10.2708 6.34375 10.5125 7.79375 10.9596 9.14708C11.0925 9.57 10.9958 10.0413 10.6575 10.3796L7.99917 13.0379Z" fill="#BFC6D0"/>
</svg>
