<svg width="40" height="40" viewBox="0 0 40 40" fill="none" xmlns="http://www.w3.org/2000/svg">
<path d="M20 6.66669C21.7681 6.66669 23.4638 7.36907 24.714 8.61931C25.9643 9.86955 26.6667 11.5652 26.6667 13.3334C26.6667 15.1015 25.9643 16.7972 24.714 18.0474C23.4638 19.2976 21.7681 20 20 20C18.2319 20 16.5362 19.2976 15.2859 18.0474C14.0357 16.7972 13.3333 15.1015 13.3333 13.3334C13.3333 11.5652 14.0357 9.86955 15.2859 8.61931C16.5362 7.36907 18.2319 6.66669 20 6.66669ZM20 23.3334C27.3667 23.3334 33.3333 26.3167 33.3333 30V33.3334H6.66666V30C6.66666 26.3167 12.6333 23.3334 20 23.3334Z" fill="#BFC6D0"/>
</svg>
